<svg width="17" height="19" viewBox="0 0 17 19" fill="none" xmlns="http://www.w3.org/2000/svg">
<path fill-rule="evenodd" clip-rule="evenodd" d="M8.00002 0C5.33497 0 3.26365 2.32002 3.56456 4.96802L3.8266 7.27398C4.06781 9.39656 5.86377 11 8.00002 11C10.1363 11 11.9322 9.39657 12.1734 7.27398L12.4355 4.96803C12.7364 2.32002 10.6651 0 8.00002 0ZM10.8817 7.1272L11.1438 4.82124C11.3571 2.94439 9.88895 1.3 8.00002 1.3C6.11108 1.3 4.64297 2.94439 4.85625 4.82124L5.11829 7.1272C5.28484 8.59283 6.52495 9.7 8.00002 9.7C9.47509 9.7 10.7152 8.59283 10.8817 7.1272Z" fill="#414BB2"/>
<path d="M6.14638 12C3.33419 12 0.899307 13.9532 0.289257 16.6984L0.189317 17.1481C0.0921699 17.5853 0.424824 18 0.872647 18H8.65708C9.01607 18 9.30708 17.709 9.30708 17.35C9.30708 16.991 9.01607 16.7 8.65708 16.7H1.62966C2.20474 14.6982 4.04051 13.3 6.14638 13.3H8.65708C9.01606 13.3 9.30708 13.009 9.30708 12.65C9.30708 12.291 9.01607 12 8.65708 12H6.14638Z" fill="#414BB2"/>
<path d="M13.5 11.853C13.859 11.853 14.15 12.144 14.15 12.503V14.353H16C16.359 14.353 16.65 14.644 16.65 15.003C16.65 15.362 16.359 15.653 16 15.653H14.15V17.503C14.15 17.8619 13.859 18.153 13.5 18.153C13.141 18.153 12.85 17.8619 12.85 17.503V15.653H11C10.641 15.653 10.35 15.362 10.35 15.003C10.35 14.644 10.641 14.353 11 14.353H12.85V12.503C12.85 12.144 13.141 11.853 13.5 11.853Z" fill="#414BB2"/>
</svg>
