<svg width="18" height="18" viewBox="0 0 18 18" fill="none" xmlns="http://www.w3.org/2000/svg">
<path d="M8.26177 4.4294C7.087 4.71578 6.37368 5.6867 6.31712 6.74095C6.24829 8.0238 7.14142 9.2697 8.88513 9.55904C9.65874 9.68742 10.1309 9.96351 10.3954 10.244C10.6554 10.5197 10.7433 10.8265 10.7176 11.1079C10.6673 11.6591 10.1259 12.3295 8.99153 12.3295C8.38688 12.3295 8.01008 12.0807 7.77215 11.798C7.50858 11.4848 7.43055 11.1483 7.43055 11.0552C7.43055 10.6962 7.13953 10.4052 6.78055 10.4052C6.42156 10.4052 6.13055 10.6962 6.13055 11.0552C6.13055 11.4931 6.34305 12.1188 6.7775 12.635C7.11977 13.0417 7.61069 13.3937 8.26177 13.5473V14.3528C8.26177 14.7118 8.55279 15.0028 8.91177 15.0028C9.27076 15.0028 9.56177 14.7118 9.56177 14.3528V13.5871C10.946 13.3762 11.9047 12.4044 12.0122 11.226C12.0725 10.5649 11.8508 9.89258 11.3412 9.35213C10.8361 8.81647 10.0786 8.4393 9.09794 8.27658C7.94359 8.08503 7.58528 7.36922 7.61525 6.81059C7.64658 6.22668 8.09364 5.6444 8.99153 5.6444C9.57766 5.6444 9.90565 5.8796 10.1062 6.14925C10.3287 6.44845 10.414 6.82315 10.414 7.05936C10.414 7.41834 10.705 7.70936 11.064 7.70936C11.423 7.70936 11.714 7.41834 11.714 7.05936C11.714 6.58749 11.563 5.9297 11.1493 5.37345C10.8005 4.90443 10.277 4.52681 9.56177 4.39487V3.66301C9.56177 3.30402 9.27076 3.01301 8.91177 3.01301C8.55279 3.01301 8.26177 3.30402 8.26177 3.66301V4.4294Z" fill="#626F84"/>
<path fill-rule="evenodd" clip-rule="evenodd" d="M0 9C0 4.02944 4.02944 0 9 0C13.9706 0 18 4.02944 18 9C18 13.9706 13.9706 18 9 18C4.02944 18 0 13.9706 0 9ZM1.3 9C1.3 4.74741 4.74741 1.3 9 1.3C13.2526 1.3 16.7 4.74741 16.7 9C16.7 13.2526 13.2526 16.7 9 16.7C4.74741 16.7 1.3 13.2526 1.3 9Z" fill="#626F84"/>
</svg>
