<svg width="16" height="18" viewBox="0 0 16 18" fill="none" xmlns="http://www.w3.org/2000/svg">
<path d="M6.47464 7.50585C6.60464 7.64585 6.77464 7.71585 6.95464 7.71585C7.11463 7.71585 7.26464 7.66585 7.39464 7.54585L9.43407 5.51714C9.74407 5.23714 9.74407 4.75714 9.43407 4.47714L7.39464 2.48605C7.12464 2.24605 6.71464 2.26605 6.47464 2.52605C6.23464 2.79605 6.24464 3.20605 6.51464 3.44605L7.39464 4.34714C7.23734 4.34714 7.15183 4.34623 7.08642 4.34554C6.97012 4.3443 6.91741 4.34374 6.63778 4.35017C4.62194 4.35017 2.98778 5.98433 2.98778 8.00017V8.34999C2.98778 8.70897 3.27879 8.99998 3.63778 8.99998C3.99676 8.99998 4.28778 8.70897 4.28778 8.34999V8.00017C4.28778 6.7023 5.33991 5.65017 6.63778 5.65017H7.39852L6.51464 6.58585C6.25464 6.82585 6.23464 7.23585 6.47464 7.50585Z" fill="#626F84"/>
<path d="M9.51911 10.4923C9.38911 10.3523 9.21911 10.2823 9.03911 10.2823C8.87911 10.2823 8.72911 10.3323 8.59911 10.4523L6.55967 12.481C6.24967 12.761 6.24967 13.241 6.55967 13.521L8.59911 15.5121C8.86911 15.7521 9.27911 15.7321 9.51911 15.4721C9.75911 15.2021 9.74911 14.7921 9.47911 14.5521L8.59911 13.651C8.75639 13.651 8.8419 13.6519 8.9073 13.6526C9.02362 13.6538 9.07632 13.6544 9.35597 13.6479C11.3718 13.6479 13.006 12.0138 13.006 9.99794V9.64812C13.006 9.28914 12.715 8.99812 12.356 8.99812C11.997 8.99812 11.706 9.28914 11.706 9.64812V9.99794C11.706 11.2958 10.6538 12.3479 9.35597 12.3479H8.59523L9.47911 11.4123C9.73911 11.1723 9.75911 10.7623 9.51911 10.4923Z" fill="#626F84"/>
<path fill-rule="evenodd" clip-rule="evenodd" d="M13.0001 0C14.6569 0 16.0001 1.34315 16.0001 3V15C16.0001 16.6569 14.6569 18 13.0001 18H3.00684C1.34998 18 0.00683594 16.6569 0.00683594 15V3C0.00683594 1.34315 1.34998 0 3.00684 0H13.0001ZM3.00684 1.3H13.0001C13.939 1.3 14.7001 2.06112 14.7001 3V15C14.7001 15.9389 13.939 16.7 13.0001 16.7H3.00684C2.06795 16.7 1.30684 15.9389 1.30684 15V3C1.30684 2.06112 2.06795 1.3 3.00684 1.3Z" fill="#626F84"/>
</svg>
