<svg width="17" height="18" viewBox="0 0 17 18" fill="none" xmlns="http://www.w3.org/2000/svg">
<path d="M11.0201 8.5103C11.1501 8.6503 11.3201 8.7203 11.5001 8.7203C11.6601 8.7203 11.8101 8.6703 11.9401 8.5503L16.0001 4.72482C16.3101 4.44482 16.3101 3.96482 16.0001 3.68481L11.9801 0.18032C11.7101 -0.0596795 11.3001 -0.0396795 11.0601 0.22032C10.8201 0.490321 10.8301 0.900321 11.1001 1.14032L13.9607 3.55481L13.9607 3.57032H10.0001C7.98426 3.57032 6.3501 5.20448 6.3501 7.22032V12C6.3501 12.359 6.64111 12.65 7.0001 12.65C7.35908 12.65 7.6501 12.359 7.6501 12V7.22032C7.6501 5.92245 8.70223 4.87032 10.0001 4.87032H13.9512L11.0601 7.59029C10.8001 7.83029 10.7801 8.2403 11.0201 8.5103Z" fill="#626F84"/>
<path d="M4.35 2C4.70899 2 5 2.29101 5 2.65C5 3.00899 4.70899 3.3 4.35 3.3H3C2.06112 3.3 1.3 4.06112 1.3 5V15C1.3 15.9389 2.06112 16.7 3 16.7H11C11.9389 16.7 12.7 15.9389 12.7 15V10.65C12.7 10.291 12.991 10 13.35 10C13.709 10 14 10.291 14 10.65V15C14 16.6569 12.6569 18 11 18H3C1.34315 18 0 16.6569 0 15V5C0 3.34315 1.34315 2 3 2H4.35Z" fill="#626F84"/>
</svg>
